<?xml version="1.0" encoding="utf-8"?>
<!-- Generator: Adobe Illustrator 19.0.0, SVG Export Plug-In . SVG Version: 6.00 Build 0)  -->
<svg version="1.2" baseProfile="tiny" id="Layer_1" xmlns="http://www.w3.org/2000/svg" xmlns:xlink="http://www.w3.org/1999/xlink"
	 x="0px" y="0px" viewBox="0 0 30 30" xml:space="preserve">
<path id="XMLID_3_" d="M22.9,28.6L1.4,7.1c-1.6-1.6-1.6-4.1,0-5.7l0,0c1.6-1.6,4.1-1.6,5.7,0L28.6,23c1.6,1.6,1.6,4.1,0,5.7l0,0
	C27,30.2,24.5,30.2,22.9,28.6z"/>
<path id="XMLID_4_" d="M1.4,23L23,1.4c1.6-1.6,4.1-1.6,5.7,0l0,0c1.6,1.6,1.6,4.1,0,5.7L7.1,28.6c-1.6,1.6-4.1,1.6-5.7,0l0,0
	C-0.1,27.1-0.1,24.5,1.4,23z"/>
</svg>
