<?xml version="1.0" encoding="utf-8"?>
<!-- Generator: Adobe Illustrator 19.0.0, SVG Export Plug-In . SVG Version: 6.00 Build 0)  -->
<svg version="1.2" baseProfile="tiny" id="Layer_1" xmlns="http://www.w3.org/2000/svg" xmlns:xlink="http://www.w3.org/1999/xlink"
	 x="0px" y="0px" viewBox="0 0 30 30" xml:space="preserve">
<path id="XMLID_3_" d="M26,8H4C1.8,8,0,6.2,0,4v0c0-2.2,1.8-4,4-4h22c2.2,0,4,1.8,4,4v0C30,6.2,28.2,8,26,8z"/>
<path id="XMLID_4_" d="M26,19H4c-2.2,0-4-1.8-4-4v0c0-2.2,1.8-4,4-4H26c2.2,0,4,1.8,4,4v0C30,17.2,28.2,19,26,19z"/>
<path id="XMLID_5_" d="M26,30H4c-2.2,0-4-1.8-4-4v0c0-2.2,1.8-4,4-4h22c2.2,0,4,1.8,4,4v0C30,28.2,28.2,30,26,30z"/>
</svg>
